<!DOCTYPE svg PUBLIC "-//W3C//DTD SVG 20010904//EN" "http://www.w3.org/TR/2001/REC-SVG-20010904/DTD/svg10.dtd">
<svg version="1.0" xmlns="http://www.w3.org/2000/svg" width="304px" height="304px" viewBox="0 0 3040 3040" preserveAspectRatio="xMidYMid meet">
<g id="layer101" fill="#000000" stroke="none">
 <path d="M0 1520 l0 -1520 1520 0 1520 0 0 1520 0 1520 -1520 0 -1520 0 0 -1520z"/>
 </g>
<g id="layer102" fill="#cfcfcf" stroke="none">
 <path d="M258 2614 c-5 -4 -8 -67 -8 -140 0 -153 -6 -144 106 -144 135 0 174 33 174 149 0 64 -3 74 -29 103 -29 33 -30 33 -133 36 -56 2 -106 0 -110 -4z m201 -70 c31 -39 29 -107 -4 -140 -22 -22 -32 -25 -88 -22 l-62 3 -3 79 c-2 44 -1 85 2 93 4 9 25 13 70 13 58 0 67 -3 85 -26z"/>
 <path d="M590 2600 c-16 -16 -20 -33 -20 -85 0 -92 15 -105 119 -105 74 0 81 2 100 26 32 40 29 126 -4 159 -21 22 -33 25 -100 25 -62 0 -79 -4 -95 -20z m158 -88 l3 -53 -63 3 -63 3 -3 39 c-5 62 0 67 65 64 l58 -3 3 -53z"/>
 <path d="M850 2515 l0 -105 25 0 25 0 0 105 0 105 -25 0 -25 0 0 -105z"/>
 <path d="M1000 2541 l0 -80 -32 -3 c-25 -2 -34 -8 -36 -25 -3 -20 1 -23 32 -23 35 0 36 -1 36 -40 0 -36 3 -40 24 -40 21 0 25 5 28 38 3 36 4 37 46 40 37 3 42 6 42 27 0 21 -5 24 -42 27 l-43 3 -1 75 c-1 73 -2 75 -28 78 l-26 3 0 -80z"/>
 <path d="M1170 2595 c0 -24 2 -25 76 -25 66 0 75 -2 72 -17 -3 -14 -15 -19 -63 -21 -72 -4 -85 -13 -85 -63 0 -49 18 -59 109 -59 69 0 71 1 71 25 0 24 -2 25 -65 25 -37 0 -65 4 -65 10 0 6 24 10 54 10 66 0 106 26 106 71 0 53 -29 69 -125 69 -84 0 -85 0 -85 -25z"/>
 <path d="M1440 2591 c-28 -27 -30 -35 -30 -105 0 -73 1 -76 24 -76 22 0 24 4 28 71 4 81 11 89 81 89 l47 0 0 -80 0 -80 30 0 31 0 -3 103 -3 102 -88 3 c-86 3 -88 2 -117 -27z"/>
 <path d="M1920 2500 l0 -119 -57 -3 c-50 -3 -58 -6 -58 -23 0 -19 8 -20 138 -23 l137 -3 0 26 c0 24 -3 25 -55 25 l-55 0 0 120 0 120 -25 0 -25 0 0 -120z"/>
 <path d="M2109 2601 c-21 -17 -24 -28 -24 -84 0 -94 15 -107 117 -107 65 0 81 3 98 20 26 26 25 66 -2 93 -20 19 -32 22 -85 19 -54 -3 -63 -6 -63 -23 0 -16 7 -19 49 -19 46 0 80 -18 64 -33 -3 -4 -33 -7 -65 -7 l-58 0 0 55 0 55 55 0 c52 0 55 1 55 25 0 24 -3 25 -59 25 -43 0 -65 -5 -82 -19z"/>
 <path d="M2372 2604 c-19 -13 -22 -24 -22 -88 0 -98 9 -106 123 -106 86 0 87 0 87 25 0 23 -3 24 -77 27 l-78 3 0 50 0 50 78 3 c74 3 77 4 77 27 0 25 -2 25 -83 25 -59 0 -89 -5 -105 -16z"/>
 <path d="M2600 2470 l0 -151 26 3 25 3 0 145 0 145 -25 3 -26 3 0 -151z"/>
 <path d="M2780 2540 l0 -80 -55 0 c-52 0 -55 -1 -55 -25 0 -24 2 -25 64 -25 58 0 67 3 85 26 17 22 21 41 21 105 l0 79 -30 0 -30 0 0 -80z"/>
 <path d="M850 2335 c0 -20 5 -25 25 -25 20 0 25 5 25 25 0 20 -5 25 -25 25 -20 0 -25 -5 -25 -25z"/>
 <path d="M1490 2152 c-69 -33 -94 -75 -92 -151 l1 -47 -271 -163 -271 -163 -37 21 c-73 41 -171 17 -205 -49 -21 -40 -19 -109 4 -146 10 -17 35 -41 55 -53 l36 -23 0 -253 0 -253 -36 -23 c-73 -45 -96 -136 -53 -206 41 -66 140 -88 200 -44 17 13 37 20 46 17 14 -6 344 -189 570 -317 l101 -57 164 88 c90 48 246 133 347 188 l184 100 28 -21 c37 -26 105 -27 150 -1 94 54 90 205 -6 251 l-35 17 0 260 0 261 33 16 c93 46 104 177 20 242 -46 35 -126 38 -166 7 -14 -11 -28 -20 -32 -20 -4 0 -129 73 -277 163 -254 153 -269 163 -264 188 8 44 -11 101 -46 136 -27 27 -44 34 -83 38 -28 3 -57 1 -65 -3z m-68 -274 c-34 -58 -402 -659 -492 -803 -47 -77 -97 -157 -109 -178 -17 -28 -29 -37 -45 -35 -21 3 -21 5 -21 262 l0 260 29 7 c63 17 111 88 104 154 l-5 42 266 161 c146 88 272 161 279 161 10 1 9 -7 -6 -31z m509 -131 l264 -159 0 -56 c0 -79 31 -121 108 -146 16 -5 17 -24 15 -263 -3 -243 -4 -258 -21 -258 -14 0 -103 137 -338 518 -175 286 -319 521 -319 524 0 12 45 -13 291 -160z m-423 125 c9 -7 12 -66 10 -262 l-3 -254 -40 -20 c-53 -28 -79 -75 -77 -140 l1 -52 -267 -159 c-147 -88 -274 -160 -282 -160 -8 0 -14 5 -13 12 5 25 636 1043 647 1043 6 0 17 -4 24 -8z m182 -129 c46 -76 123 -201 170 -278 300 -486 380 -621 375 -633 -3 -7 -9 -12 -13 -10 -5 2 -128 75 -275 163 l-266 159 0 52 c1 72 -26 114 -96 149 -19 10 -20 20 -23 265 -2 256 -1 269 33 270 6 0 48 -62 95 -137z m234 -802 l269 -162 1 -63 2 -63 -304 -164 c-167 -90 -310 -165 -318 -167 -12 -3 -14 50 -14 367 l0 371 24 6 c14 3 32 14 42 25 9 10 19 17 23 15 3 -2 127 -76 275 -165z m-451 137 l47 -23 0 -367 c0 -235 -4 -368 -10 -368 -10 0 -598 326 -613 340 -5 4 -10 33 -10 63 l-2 56 265 160 c146 88 267 161 270 161 3 0 26 -10 53 -22z"/>
 </g>
<g id="layer103" fill="#fdfdfd" stroke="none">
 <path d="M1444 2589 c-21 -22 -24 -34 -24 -102 0 -70 2 -77 20 -77 18 0 20 7 20 58 0 31 6 68 13 82 11 22 19 25 66 25 l54 0 -2 -82 c-2 -82 -2 -83 23 -83 24 0 25 1 28 99 l3 100 -88 3 c-83 3 -89 2 -113 -23z"/>
 <path d="M262 2473 l3 -138 78 -3 c105 -4 158 20 175 77 16 51 15 94 -2 135 -23 56 -48 66 -159 66 l-98 0 3 -137z m181 95 c33 -19 37 -28 37 -94 0 -83 -15 -96 -106 -92 l-69 3 -3 98 -3 97 61 0 c33 0 70 -6 83 -12z"/>
 <path d="M598 2603 c-36 -9 -35 -163 2 -183 10 -5 48 -10 84 -10 55 0 69 4 95 26 27 23 31 32 31 78 0 78 -23 96 -121 95 -41 -1 -82 -3 -91 -6z m150 -35 c12 -12 16 -75 7 -100 -4 -9 -24 -13 -68 -12 l-62 1 -3 48 c-2 26 -1 54 2 61 7 18 107 19 124 2z"/>
 <path d="M850 2510 l0 -100 25 0 25 0 0 100 0 100 -25 0 -25 0 0 -100z"/>
 <path d="M1000 2536 l0 -75 -32 -3 c-25 -2 -34 -8 -36 -25 -3 -20 1 -23 32 -23 35 0 36 -1 36 -40 0 -36 3 -40 24 -40 21 0 25 5 28 38 3 36 4 37 46 40 38 3 42 6 42 29 0 24 -2 25 -45 21 l-45 -6 0 79 c0 78 0 79 -25 79 -24 0 -25 -2 -25 -74z"/>
 <path d="M1170 2595 c0 -11 18 -15 78 -17 70 -3 77 -5 80 -24 3 -20 -3 -22 -68 -26 -39 -3 -74 -8 -78 -12 -13 -14 -7 -87 8 -96 8 -5 48 -10 88 -10 71 0 72 0 72 26 0 25 -1 25 -67 23 -52 -2 -68 1 -68 11 0 11 13 13 54 11 68 -3 101 23 101 80 0 44 -11 49 -122 49 -62 0 -78 -3 -78 -15z"/>
 <path d="M1920 2495 l0 -114 -57 -3 c-50 -3 -58 -6 -58 -23 0 -19 8 -20 138 -23 l137 -3 0 26 c0 24 -3 25 -55 25 l-55 0 0 115 0 115 -25 0 -25 0 0 -115z"/>
 <path d="M2101 2581 c-31 -44 -28 -101 8 -140 27 -28 34 -31 93 -31 78 0 108 21 108 76 0 42 -24 54 -106 54 -47 0 -54 -2 -54 -20 0 -18 7 -20 61 -20 56 0 60 -1 57 -22 -3 -20 -9 -22 -67 -22 l-64 0 -1 57 c-1 63 3 67 65 67 28 0 39 4 39 15 0 12 -13 15 -59 15 -54 0 -61 -3 -80 -29z"/>
 <path d="M2360 2584 c-6 -14 -10 -48 -10 -75 0 -40 5 -55 25 -74 21 -22 33 -25 100 -25 73 0 76 1 73 23 -3 20 -10 22 -78 27 l-75 5 -3 37 c-6 66 9 78 88 78 56 0 70 3 70 15 0 12 -17 15 -90 15 -88 0 -91 -1 -100 -26z"/>
 <path d="M2610 2470 c0 -133 1 -140 20 -140 19 0 20 7 20 140 0 133 -1 140 -20 140 -19 0 -20 -7 -20 -140z"/>
 <path d="M2785 2600 c-4 -6 -5 -41 -3 -78 l3 -67 -57 3 c-57 4 -58 3 -58 -22 0 -25 3 -26 54 -26 44 0 60 5 86 26 30 26 31 29 28 98 -3 64 -5 71 -25 74 -11 2 -24 -2 -28 -8z"/>
 <path d="M857 2354 c-4 -4 -7 -16 -7 -26 0 -13 7 -18 26 -18 21 0 25 4 22 22 -3 23 -27 35 -41 22z"/>
 <path d="M1463 2132 c-35 -19 -44 -31 -57 -74 -11 -38 -12 -56 -4 -74 14 -29 11 -33 -67 -74 -33 -18 -71 -41 -84 -51 -13 -11 -28 -19 -32 -19 -5 0 -36 -18 -68 -40 -32 -22 -63 -40 -68 -40 -5 0 -32 -16 -59 -35 -27 -19 -53 -35 -58 -35 -5 0 -23 -11 -40 -23 -64 -49 -74 -51 -109 -21 -28 23 -37 26 -84 21 -63 -7 -88 -22 -113 -73 -37 -71 -20 -137 45 -178 l45 -29 0 -268 c0 -244 -2 -269 -17 -269 -9 0 -33 -19 -55 -42 -45 -49 -49 -89 -15 -157 18 -37 30 -47 73 -63 46 -17 54 -17 86 -3 20 8 43 22 53 31 18 18 13 20 110 -36 28 -16 64 -36 80 -44 17 -9 48 -27 70 -41 22 -13 58 -33 80 -45 22 -11 67 -36 100 -54 33 -19 74 -41 90 -50 17 -9 48 -27 70 -41 22 -13 55 -31 73 -40 36 -17 41 -16 157 51 33 19 87 48 120 65 33 17 87 46 120 64 105 59 168 93 225 121 30 15 63 34 73 42 15 14 22 13 71 -11 30 -15 57 -27 60 -27 3 0 29 11 58 24 60 27 81 63 78 129 -3 63 -24 101 -65 117 -20 8 -38 23 -41 34 -2 12 -3 131 -2 265 l3 244 38 20 c64 33 89 133 50 198 -40 68 -145 89 -198 39 l-22 -21 -34 20 c-19 12 -45 26 -59 32 -14 6 -39 21 -57 35 -17 13 -36 24 -41 24 -5 0 -27 12 -49 28 -54 38 -76 51 -93 59 -8 3 -44 25 -80 47 -94 60 -103 65 -127 76 -24 10 -30 39 -12 57 7 7 3 26 -14 64 -40 89 -121 117 -204 71z m-19 -235 c-4 -7 -17 -25 -28 -42 -12 -16 -29 -46 -40 -65 -10 -19 -29 -49 -42 -67 -13 -17 -24 -35 -24 -40 0 -4 -25 -46 -55 -92 -30 -46 -55 -86 -55 -88 0 -2 -17 -30 -37 -61 -51 -78 -61 -94 -71 -117 -6 -11 -31 -51 -56 -88 -25 -37 -46 -71 -46 -76 0 -4 -13 -27 -30 -49 -16 -23 -30 -44 -30 -47 0 -3 -17 -32 -37 -63 -21 -31 -43 -68 -51 -82 -7 -14 -21 -36 -31 -49 -15 -20 -21 -22 -39 -12 -22 12 -22 16 -22 266 l0 254 46 23 c66 33 121 140 84 163 -23 14 -2 31 105 90 11 6 39 23 62 38 24 15 45 27 47 27 3 0 22 12 43 26 21 14 47 30 58 35 22 11 40 22 104 63 103 66 166 89 145 53z m274 -17 c23 -16 46 -30 50 -30 5 0 28 -13 50 -30 23 -16 45 -30 50 -30 4 0 39 -20 76 -45 38 -25 72 -45 76 -45 4 0 26 -13 48 -30 23 -16 44 -30 48 -30 3 0 25 -12 50 -26 29 -17 42 -30 36 -38 -13 -18 -6 -83 11 -110 10 -14 17 -29 17 -33 0 -8 72 -43 88 -43 4 0 7 -119 7 -265 0 -146 -3 -265 -7 -265 -3 0 -13 -3 -22 -6 -15 -6 -51 43 -103 136 -10 19 -36 61 -56 92 -20 31 -37 60 -37 63 0 4 -11 21 -24 38 -13 18 -32 48 -43 67 -10 19 -40 68 -66 108 -26 40 -55 87 -65 105 -10 18 -34 57 -53 87 -20 30 -39 62 -42 70 -8 17 -17 31 -69 108 -21 31 -38 59 -38 64 0 4 -13 27 -30 50 -16 22 -30 47 -30 55 0 22 35 15 78 -17z m-198 -271 c0 -219 -3 -269 -13 -269 -8 0 -28 -7 -46 -16 -51 -26 -75 -91 -57 -157 7 -24 5 -29 -25 -42 -19 -9 -47 -24 -64 -35 -16 -11 -39 -24 -50 -30 -22 -12 -40 -23 -100 -60 -73 -47 -80 -50 -110 -64 -16 -8 -41 -23 -55 -33 -14 -11 -32 -23 -40 -26 -8 -4 -28 -16 -45 -27 -62 -40 -62 -40 -76 -24 -14 17 -11 24 70 149 25 39 54 86 64 105 11 19 36 60 55 90 20 30 45 71 55 90 11 19 29 48 41 65 11 16 29 46 40 65 10 19 35 60 54 90 20 30 45 71 55 90 11 19 29 48 41 65 11 16 29 46 40 65 10 19 29 49 42 67 13 17 24 34 24 38 0 3 11 23 24 44 21 32 29 38 50 34 l26 -5 0 -269z m119 231 c17 -28 31 -52 31 -54 0 -2 16 -28 36 -57 20 -30 40 -63 46 -74 10 -23 20 -40 71 -117 20 -31 37 -60 37 -63 0 -3 14 -24 30 -47 17 -22 30 -45 30 -49 0 -5 21 -39 46 -76 25 -37 50 -77 56 -88 10 -23 20 -39 71 -117 20 -31 37 -59 37 -61 0 -2 25 -42 55 -88 51 -78 66 -121 47 -133 -5 -3 -39 14 -77 37 -37 23 -86 52 -108 65 -23 12 -48 29 -57 37 -9 8 -21 15 -27 15 -5 0 -28 12 -50 28 -52 36 -74 50 -98 62 -11 6 -33 19 -50 30 -16 11 -45 26 -62 34 -33 15 -41 37 -24 65 22 34 -57 151 -101 151 -17 0 -18 20 -18 269 0 286 -2 272 42 280 3 0 20 -22 37 -49z m106 -784 c35 -25 62 -42 90 -55 11 -5 37 -21 58 -35 21 -14 40 -26 43 -26 2 0 23 -12 47 -27 60 -39 79 -51 102 -62 45 -22 124 -78 118 -85 -4 -3 -6 -30 -6 -58 2 -65 15 -53 -202 -168 -33 -18 -87 -47 -120 -65 -33 -18 -91 -50 -130 -70 -38 -19 -88 -47 -110 -60 -80 -49 -75 -72 -75 348 l1 372 42 21 c39 19 45 19 77 6 19 -8 48 -24 65 -36z m-272 27 l47 -17 0 -373 c0 -357 -1 -373 -19 -373 -10 0 -30 9 -44 20 -14 12 -45 30 -69 41 -24 11 -61 31 -83 44 -22 13 -58 33 -80 45 -22 11 -58 31 -80 45 -22 13 -62 36 -90 50 -27 14 -59 31 -70 37 -11 7 -41 26 -68 42 -32 20 -44 33 -37 40 13 13 13 63 0 71 -17 10 -11 25 13 36 23 10 35 17 102 59 22 14 49 31 60 38 11 6 90 54 175 105 138 84 173 103 190 106 3 1 26 -7 53 -16z"/>
 </g>

</svg>