<!DOCTYPE svg PUBLIC "-//W3C//DTD SVG 20010904//EN" "http://www.w3.org/TR/2001/REC-SVG-20010904/DTD/svg10.dtd">
<svg version="1.0" xmlns="http://www.w3.org/2000/svg" width="620px" height="495px" viewBox="0 0 6200 4950" preserveAspectRatio="xMidYMid meet">
<g id="layer101" fill="#030303" stroke="none">
 <path d="M0 2475 l0 -2475 3100 0 3100 0 0 2475 0 2475 -3100 0 -3100 0 0 -2475z m5550 1700 c16 -8 34 -24 40 -34 5 -11 10 -86 10 -171 0 -147 -1 -152 -25 -175 -23 -24 -31 -25 -135 -25 -104 0 -112 1 -135 25 -23 22 -25 32 -25 115 0 83 2 93 25 115 22 23 32 25 110 25 84 0 85 0 85 -25 0 -24 -3 -25 -62 -25 -88 0 -93 -5 -93 -90 0 -52 4 -73 15 -80 19 -13 141 -13 160 0 12 7 16 37 18 134 5 162 2 166 -88 166 l-70 0 0 30 0 30 70 0 c44 0 82 -6 100 -15z m417 -18 l28 -27 3 -180 3 -180 -35 0 -36 0 0 168 c0 117 -4 172 -12 180 -7 7 -40 12 -80 12 l-68 0 0 31 0 31 85 -3 c77 -4 87 -7 112 -32z m-5421 -123 c60 -29 79 -66 82 -169 3 -81 1 -93 -20 -124 -46 -69 -65 -76 -209 -79 -91 -3 -134 0 -145 8 -11 10 -14 47 -14 190 0 97 3 180 7 183 3 4 65 7 136 7 98 0 137 -4 163 -16z m441 -8 c27 -23 28 -28 28 -116 0 -88 -1 -93 -28 -116 -26 -22 -37 -24 -133 -24 -103 0 -106 1 -135 29 -27 28 -29 34 -29 111 0 77 2 83 29 111 29 28 32 29 135 29 96 0 107 -2 133 -24z m163 -116 l0 -140 -35 0 -35 0 0 140 0 140 35 0 35 0 0 -140z m210 31 c0 -123 -1 -121 81 -121 46 0 49 -2 49 -25 0 -24 -3 -25 -53 -25 -29 0 -58 -5 -65 -12 -7 -7 -12 -31 -12 -55 0 -41 -1 -43 -30 -43 -28 0 -30 2 -30 39 0 63 -7 71 -56 71 -40 0 -44 2 -44 25 0 23 4 25 44 25 31 0 46 5 50 16 3 9 6 60 6 115 l0 99 30 0 30 0 0 -109z m435 84 c18 -17 25 -35 25 -62 -1 -70 -37 -93 -145 -93 -73 0 -76 -1 -73 -22 3 -22 8 -23 96 -26 90 -3 92 -3 92 -27 0 -25 0 -25 -105 -25 -100 0 -107 1 -132 26 -21 21 -24 32 -19 62 9 57 35 72 125 72 94 0 122 18 85 54 -12 12 -38 16 -115 16 -99 0 -99 0 -99 25 l0 25 120 0 c115 0 122 -1 145 -25z m403 -117 l3 -138 -35 0 -35 0 -3 113 -3 112 -72 0 c-100 0 -107 -8 -111 -130 l-4 -95 -29 0 -29 0 0 101 c0 111 7 131 53 160 28 17 47 19 147 17 l115 -3 3 -137z m462 -23 l0 -164 78 -3 c76 -3 77 -3 80 -30 l3 -28 -196 0 -196 0 3 28 c3 27 4 27 81 30 l77 3 0 164 0 165 35 0 35 0 0 -165z m390 140 c0 -24 -3 -25 -61 -25 -91 0 -99 -7 -99 -90 0 -83 8 -90 102 -90 74 0 91 9 86 41 -3 23 -7 24 -81 27 l-78 3 3 27 c3 26 5 27 72 30 85 4 124 -11 141 -52 17 -41 8 -82 -23 -106 -21 -17 -40 -20 -129 -20 -97 0 -106 2 -128 25 -23 22 -25 32 -25 115 0 83 2 93 25 115 22 23 32 25 110 25 84 0 85 0 85 -25z m430 0 c0 -25 -1 -25 -91 -25 -123 0 -129 -4 -129 -90 0 -86 6 -90 129 -90 90 0 91 0 91 -25 l0 -25 -114 0 c-107 0 -117 2 -143 24 -27 23 -28 28 -28 116 0 88 1 93 28 116 26 22 36 24 143 24 l114 0 0 -25z m140 -180 l0 -205 -35 0 -35 0 0 205 0 205 35 0 35 0 0 -205z m258 89 c-3 -112 -4 -117 -31 -140 -25 -21 -38 -24 -113 -24 -83 0 -84 0 -84 25 0 24 3 25 61 25 97 0 99 3 99 125 l0 105 36 0 36 0 -4 -116z m134 4 l3 -113 54 -3 c116 -7 131 9 131 134 l0 94 35 0 35 0 0 -95 c0 -164 -26 -187 -203 -183 l-112 3 -3 138 -3 137 30 0 30 0 3 -112z m615 88 c27 -23 28 -28 28 -116 0 -88 -1 -93 -28 -116 -26 -22 -37 -24 -133 -24 -103 0 -106 1 -135 29 -27 28 -29 34 -29 111 0 77 2 83 29 111 29 28 32 29 135 29 96 0 107 -2 133 -24z m223 1 c0 -16 -9 -26 -30 -34 l-30 -11 0 -171 0 -171 -35 0 -35 0 0 176 0 176 29 29 c22 21 39 29 65 29 31 0 36 -3 36 -23z m337 -1 c27 -23 28 -28 28 -114 0 -82 -2 -93 -24 -116 -23 -25 -29 -26 -132 -26 -100 0 -110 2 -136 24 -27 23 -28 28 -28 116 0 88 1 93 28 116 26 22 37 24 132 24 95 0 106 -2 132 -24z m713 -1 c0 -24 -3 -25 -61 -25 -97 0 -99 -3 -99 -125 l0 -105 -36 0 -36 0 4 116 c3 113 4 116 31 140 25 21 38 24 113 24 83 0 84 0 84 -25z m-4750 -366 c0 -28 -2 -30 -32 -27 -28 2 -34 8 -36 31 -3 25 -1 27 32 27 33 0 36 -2 36 -31z m2055 -277 c43 -21 65 -42 87 -85 19 -38 26 -116 14 -155 -5 -16 3 -25 41 -48 26 -15 200 -119 385 -231 185 -111 342 -203 348 -203 6 0 28 12 47 28 32 24 45 27 108 27 63 0 77 -4 114 -29 125 -87 108 -276 -31 -347 l-38 -19 0 -369 0 -369 30 -12 c101 -42 151 -159 110 -261 -44 -111 -177 -155 -286 -94 l-50 28 -244 -133 c-135 -73 -288 -156 -340 -185 -52 -29 -160 -88 -240 -130 l-145 -77 -50 27 c-72 40 -413 231 -679 380 -189 106 -231 127 -245 117 -100 -72 -205 -73 -285 -3 -45 39 -68 118 -55 187 11 60 49 110 105 137 l44 21 0 368 0 368 -39 20 c-138 70 -155 259 -30 346 37 25 51 29 114 29 63 0 76 -3 108 -27 19 -16 41 -28 47 -28 6 0 184 104 395 231 l383 231 -5 57 c-11 117 43 195 152 222 37 9 90 1 130 -19z"/>
 <path d="M317 3993 c-4 -3 -7 -66 -7 -140 l0 -133 94 0 c87 0 97 2 125 26 30 25 31 29 31 106 0 92 -9 114 -55 134 -35 14 -176 20 -188 7z"/>
 <path d="M778 3989 c-14 -8 -18 -24 -18 -77 0 -40 5 -73 12 -80 15 -15 132 -16 159 -2 16 9 19 22 19 80 0 58 -3 71 -19 80 -25 13 -131 13 -153 -1z"/>
 <path d="M4418 3989 c-14 -8 -18 -24 -18 -77 0 -40 5 -73 12 -80 15 -15 132 -16 159 -2 16 9 19 22 19 80 0 58 -3 71 -19 80 -25 13 -131 13 -153 -1z"/>
 <path d="M4978 3989 c-27 -15 -26 -144 1 -159 27 -14 144 -13 159 2 7 7 12 40 12 80 0 56 -3 69 -19 78 -25 13 -131 13 -153 -1z"/>
 <path d="M2569 2838 l-386 -231 5 -71 c4 -67 2 -74 -29 -121 -32 -47 -58 -66 -131 -94 l-28 -11 0 -354 c0 -377 -1 -370 49 -378 28 -3 15 -22 241 347 267 435 509 829 597 973 83 136 99 172 75 172 -4 0 -181 -105 -393 -232z"/>
 <path d="M3255 3060 c-7 -11 -2 -19 110 -200 39 -63 123 -198 185 -300 62 -102 172 -279 243 -395 71 -115 179 -291 240 -390 61 -99 116 -186 122 -193 9 -9 18 -10 38 -3 l27 11 0 364 0 365 -35 10 c-51 14 -92 46 -121 97 -24 40 -26 53 -22 113 l5 68 -387 232 c-213 127 -390 231 -393 231 -3 0 -9 -5 -12 -10z"/>
 <path d="M2915 2857 c-54 -89 -149 -243 -210 -342 -516 -836 -588 -958 -578 -974 6 -9 18 -15 26 -15 9 1 187 104 395 228 l379 227 -5 68 c-4 55 -1 75 17 108 23 45 69 85 116 100 l30 10 3 367 2 366 -26 10 c-14 6 -31 10 -37 10 -7 0 -57 -73 -112 -163z"/>
 <path d="M3163 3010 l-23 -9 0 -355 c0 -195 3 -361 6 -370 3 -9 14 -16 24 -16 29 0 98 -57 120 -99 22 -45 28 -89 17 -141 l-7 -36 381 -228 c210 -126 388 -229 397 -230 8 0 19 6 25 15 8 12 -11 49 -85 170 -116 189 -391 636 -627 1021 -107 175 -182 287 -191 287 -8 0 -25 -4 -37 -9z"/>
 <path d="M2568 1699 l-383 -231 1 -81 2 -82 43 -26 c126 -73 841 -469 849 -469 6 0 10 196 10 526 l0 525 -37 16 c-21 8 -50 24 -65 34 -14 11 -28 19 -31 19 -3 0 -178 -104 -389 -231z"/>
 <path d="M3239 1911 c-13 -10 -41 -26 -62 -34 l-37 -16 0 -520 c0 -315 4 -522 9 -526 10 -6 69 25 561 291 375 202 350 186 338 208 -6 11 -8 48 -6 86 l5 67 -380 229 c-209 126 -385 230 -391 232 -7 1 -23 -6 -37 -17z"/>
 </g>
<g id="layer102" fill="#f9f9f9" stroke="none">
 <path d="M5380 4160 l0 -30 70 0 c90 0 93 -4 88 -166 -2 -97 -6 -127 -18 -134 -19 -13 -141 -13 -160 0 -11 7 -15 28 -15 80 0 85 5 90 93 90 59 0 62 1 62 25 0 25 -1 25 -85 25 -78 0 -88 -2 -110 -25 -23 -22 -25 -32 -25 -115 0 -83 2 -93 25 -115 23 -24 31 -25 135 -25 104 0 112 1 135 25 24 23 25 28 25 175 0 85 -5 160 -10 171 -18 33 -64 49 -140 49 l-70 0 0 -30z"/>
 <path d="M5770 4161 l0 -31 68 0 c40 0 73 -5 80 -12 8 -8 12 -63 12 -180 l0 -168 36 0 35 0 -3 180 -3 180 -28 27 c-25 25 -35 28 -112 32 l-85 3 0 -31z"/>
 <path d="M247 4043 c-4 -3 -7 -86 -7 -183 0 -143 3 -180 14 -190 11 -8 54 -11 145 -8 144 3 163 10 209 79 21 31 23 43 20 124 -2 74 -7 96 -25 121 -38 53 -75 64 -220 64 -71 0 -133 -3 -136 -7z m258 -57 c46 -20 55 -42 55 -134 0 -77 -1 -81 -31 -106 -28 -24 -38 -26 -125 -26 l-94 0 0 133 c0 74 3 137 7 140 12 13 153 7 188 -7z"/>
 <path d="M719 4021 c-27 -28 -29 -34 -29 -111 0 -77 2 -83 29 -111 29 -28 32 -29 135 -29 96 0 107 2 133 24 27 23 28 28 28 116 0 88 -1 93 -28 116 -26 22 -37 24 -133 24 -103 0 -106 -1 -135 -29z m212 -31 c16 -9 19 -22 19 -80 0 -58 -3 -71 -19 -80 -27 -14 -144 -13 -159 2 -7 7 -12 40 -12 80 0 53 4 69 18 77 22 14 128 14 153 1z"/>
 <path d="M1080 3910 l0 -140 35 0 35 0 0 140 0 140 -35 0 -35 0 0 -140z"/>
 <path d="M1300 3951 c0 -55 -3 -106 -6 -115 -4 -11 -19 -16 -50 -16 -40 0 -44 -2 -44 -25 0 -23 4 -25 44 -25 49 0 56 -8 56 -71 0 -37 2 -39 30 -39 29 0 30 2 30 43 0 24 5 48 12 55 7 7 36 12 65 12 50 0 53 1 53 25 0 23 -3 25 -49 25 -82 0 -81 -2 -81 121 l0 109 -30 0 -30 0 0 -99z"/>
 <path d="M1530 4025 c0 -25 0 -25 99 -25 77 0 103 -4 115 -16 37 -36 9 -54 -85 -54 -90 0 -116 -15 -125 -72 -5 -30 -2 -41 19 -62 25 -25 32 -26 132 -26 105 0 105 0 105 25 0 24 -2 24 -92 27 -88 3 -93 4 -96 26 -3 21 0 22 73 22 108 0 144 23 145 93 0 27 -7 45 -25 62 -23 24 -30 25 -145 25 l-120 0 0 -25z"/>
 <path d="M1933 4031 c-46 -29 -53 -49 -53 -160 l0 -101 29 0 29 0 4 95 c4 122 11 130 111 130 l72 0 3 -112 3 -113 35 0 35 0 -3 138 -3 137 -115 3 c-100 2 -119 0 -147 -17z"/>
 <path d="M2590 3885 l0 -164 -77 -3 c-77 -3 -78 -3 -81 -30 l-3 -28 196 0 196 0 -3 28 c-3 27 -4 27 -80 30 l-78 3 0 164 0 165 -35 0 -35 0 0 -165z"/>
 <path d="M2855 4025 c-23 -22 -25 -32 -25 -115 0 -83 2 -93 25 -115 22 -23 31 -25 128 -25 89 0 108 3 129 20 31 24 40 65 23 106 -17 41 -56 56 -141 52 -67 -3 -69 -4 -72 -30 l-3 -27 78 -3 c74 -3 78 -4 81 -27 5 -32 -12 -41 -86 -41 -94 0 -102 7 -102 90 0 83 8 90 99 90 58 0 61 1 61 25 0 25 -1 25 -85 25 -78 0 -88 -2 -110 -25z"/>
 <path d="M3223 4026 c-27 -23 -28 -28 -28 -116 0 -88 1 -93 28 -116 26 -22 36 -24 143 -24 l114 0 0 25 c0 25 -1 25 -91 25 -123 0 -129 4 -129 90 0 86 6 90 129 90 90 0 91 0 91 25 l0 25 -114 0 c-107 0 -117 -2 -143 -24z"/>
 <path d="M3550 3845 l0 -205 35 0 35 0 0 205 0 205 -35 0 -35 0 0 -205z"/>
 <path d="M3810 3945 c0 -122 -2 -125 -99 -125 -58 0 -61 -1 -61 -25 0 -25 1 -25 84 -25 75 0 88 3 113 24 27 23 28 28 31 140 l4 116 -36 0 -36 0 0 -105z"/>
 <path d="M3952 3913 l3 -138 112 -3 c177 -4 203 19 203 183 l0 95 -35 0 -35 0 0 -94 c0 -125 -15 -141 -131 -134 l-54 3 -3 113 -3 112 -30 0 -30 0 3 -137z"/>
 <path d="M4359 4021 c-27 -28 -29 -34 -29 -111 0 -77 2 -83 29 -111 29 -28 32 -29 135 -29 96 0 107 2 133 24 27 23 28 28 28 116 0 88 -1 93 -28 116 -26 22 -37 24 -133 24 -103 0 -106 -1 -135 -29z m212 -31 c16 -9 19 -22 19 -80 0 -58 -3 -71 -19 -80 -27 -14 -144 -13 -159 2 -7 7 -12 40 -12 80 0 53 4 69 18 77 22 14 128 14 153 1z"/>
 <path d="M4749 4021 l-29 -29 0 -176 0 -176 35 0 35 0 0 171 0 171 30 11 c21 8 30 18 30 34 0 20 -5 23 -36 23 -26 0 -43 -8 -65 -29z"/>
 <path d="M4923 4026 c-27 -23 -28 -28 -28 -116 0 -88 1 -93 28 -116 26 -22 36 -24 136 -24 103 0 109 1 132 26 22 23 24 34 24 116 0 86 -1 91 -28 114 -26 22 -37 24 -132 24 -95 0 -106 -2 -132 -24z m208 -36 c16 -9 19 -22 19 -78 0 -40 -5 -73 -12 -80 -15 -15 -132 -16 -159 -2 -27 15 -28 144 -1 159 22 14 128 14 153 1z"/>
 <path d="M5703 4026 c-27 -24 -28 -27 -31 -140 l-4 -116 36 0 36 0 0 105 c0 122 2 125 99 125 58 0 61 1 61 25 0 25 -1 25 -84 25 -75 0 -88 -3 -113 -24z"/>
 <path d="M1082 3663 c2 -23 8 -29 36 -31 30 -3 32 -1 32 27 0 29 -3 31 -36 31 -33 0 -35 -2 -32 -27z"/>
 <path d="M3075 3401 c-109 -27 -163 -105 -152 -222 l5 -57 -383 -231 c-211 -127 -389 -231 -395 -231 -6 0 -28 12 -47 28 -32 24 -45 27 -108 27 -63 0 -77 -4 -114 -29 -125 -87 -108 -276 30 -346 l39 -20 0 -368 0 -368 -44 -21 c-56 -27 -94 -77 -105 -137 -24 -130 64 -239 194 -239 47 0 95 18 146 55 14 10 56 -11 245 -117 266 -149 607 -340 679 -380 l50 -27 145 77 c80 42 188 101 240 130 52 29 205 112 340 185 l244 133 50 -28 c109 -61 242 -17 286 94 41 102 -9 219 -110 261 l-30 12 0 369 0 369 38 19 c139 71 156 260 31 347 -37 25 -51 29 -114 29 -63 0 -76 -3 -108 -27 -19 -16 -41 -28 -47 -28 -6 0 -163 92 -348 203 -185 112 -359 216 -385 231 -38 23 -46 32 -41 48 20 64 -6 169 -52 209 -47 41 -125 63 -179 50z m-100 -341 c3 -5 -37 -78 -88 -162 -88 -144 -330 -538 -597 -973 -226 -369 -213 -350 -241 -347 -50 8 -49 1 -49 378 l0 354 28 11 c73 28 99 47 131 94 31 47 33 54 29 121 l-5 71 386 231 c212 127 389 232 393 232 4 0 9 -4 13 -10z m685 -221 l387 -232 -5 -68 c-4 -60 -2 -73 22 -113 29 -51 70 -83 121 -97 l35 -10 0 -365 0 -364 -27 -11 c-20 -7 -29 -6 -38 3 -6 7 -61 94 -122 193 -61 99 -169 275 -240 390 -71 116 -181 293 -243 395 -62 102 -146 237 -185 300 -112 181 -117 189 -110 200 3 5 9 10 12 10 3 0 180 -104 393 -231z m-596 171 l26 -10 -2 -366 -3 -367 -30 -10 c-47 -15 -93 -55 -116 -100 -18 -33 -21 -53 -17 -108 l5 -68 -379 -227 c-208 -124 -386 -227 -395 -228 -8 0 -20 6 -26 15 -10 16 62 138 578 974 61 99 156 253 210 342 55 90 105 163 112 163 6 0 23 -4 37 -10z m327 -278 c236 -385 511 -832 627 -1021 74 -121 93 -158 85 -170 -6 -9 -17 -15 -25 -15 -9 1 -187 104 -397 230 l-381 228 7 36 c11 52 5 96 -17 141 -22 42 -91 99 -120 99 -10 0 -21 7 -24 16 -3 9 -6 175 -6 370 l0 355 23 9 c12 5 29 9 37 9 9 0 84 -112 191 -287z m-403 -821 c15 -10 44 -26 65 -34 l37 -16 0 -525 c0 -330 -4 -526 -10 -526 -8 0 -723 396 -849 469 l-43 26 -2 82 -1 81 383 231 c211 127 386 231 389 231 3 0 17 -8 31 -19z m679 -215 l380 -229 -5 -67 c-2 -38 0 -75 6 -86 12 -22 37 -6 -338 -208 -492 -266 -551 -297 -561 -291 -5 4 -9 211 -9 526 l0 520 37 16 c21 8 49 24 62 34 14 11 30 18 37 17 6 -2 182 -106 391 -232z"/>
 </g>

</svg>